<mxfile host="Electron" modified="2023-12-01T04:55:54.589Z" agent="Mozilla/5.0 (Windows NT 10.0; Win64; x64) AppleWebKit/537.36 (KHTML, like Gecko) draw.io/22.1.2 Chrome/114.0.5735.289 Electron/25.9.4 Safari/537.36" etag="riz3ZfG0ILpxsO8BOMgQ" version="22.1.2" type="device">
  <diagram name="第 1 页" id="Sz4y7XV0d_JCJWOFTGZO">
    <mxGraphModel dx="1233" dy="729" grid="1" gridSize="10" guides="1" tooltips="1" connect="1" arrows="1" fold="1" page="1" pageScale="1" pageWidth="2336" pageHeight="1654" math="0" shadow="0">
      <root>
        <mxCell id="0" />
        <mxCell id="1" parent="0" />
        <mxCell id="NppVri6PDYhuUxLLY0zg-1" value="" style="rounded=0;whiteSpace=wrap;html=1;" vertex="1" parent="1">
          <mxGeometry x="720" y="1460" width="760" height="80" as="geometry" />
        </mxCell>
        <mxCell id="NppVri6PDYhuUxLLY0zg-66" style="edgeStyle=orthogonalEdgeStyle;rounded=0;orthogonalLoop=1;jettySize=auto;html=1;exitX=0.5;exitY=0;exitDx=0;exitDy=0;entryX=0.5;entryY=1;entryDx=0;entryDy=0;" edge="1" parent="1" source="NppVri6PDYhuUxLLY0zg-6" target="NppVri6PDYhuUxLLY0zg-49">
          <mxGeometry relative="1" as="geometry" />
        </mxCell>
        <mxCell id="NppVri6PDYhuUxLLY0zg-6" value="" style="rounded=0;whiteSpace=wrap;html=1;fillColor=#f8cecc;strokeColor=#b85450;" vertex="1" parent="1">
          <mxGeometry x="745" y="1400" width="30" height="30" as="geometry" />
        </mxCell>
        <mxCell id="NppVri6PDYhuUxLLY0zg-65" style="edgeStyle=orthogonalEdgeStyle;rounded=0;orthogonalLoop=1;jettySize=auto;html=1;exitX=0.5;exitY=0;exitDx=0;exitDy=0;entryX=0.5;entryY=1;entryDx=0;entryDy=0;" edge="1" parent="1" source="NppVri6PDYhuUxLLY0zg-22" target="NppVri6PDYhuUxLLY0zg-6">
          <mxGeometry relative="1" as="geometry" />
        </mxCell>
        <mxCell id="NppVri6PDYhuUxLLY0zg-22" value="0" style="rounded=0;whiteSpace=wrap;html=1;" vertex="1" parent="1">
          <mxGeometry x="740" y="1480" width="40" height="40" as="geometry" />
        </mxCell>
        <mxCell id="NppVri6PDYhuUxLLY0zg-67" style="edgeStyle=orthogonalEdgeStyle;rounded=0;orthogonalLoop=1;jettySize=auto;html=1;exitX=0.5;exitY=0;exitDx=0;exitDy=0;entryX=0.5;entryY=1;entryDx=0;entryDy=0;" edge="1" parent="1" source="NppVri6PDYhuUxLLY0zg-23" target="NppVri6PDYhuUxLLY0zg-41">
          <mxGeometry relative="1" as="geometry" />
        </mxCell>
        <mxCell id="NppVri6PDYhuUxLLY0zg-23" value="1" style="rounded=0;whiteSpace=wrap;html=1;" vertex="1" parent="1">
          <mxGeometry x="780" y="1480" width="40" height="40" as="geometry" />
        </mxCell>
        <mxCell id="NppVri6PDYhuUxLLY0zg-24" value="59" style="rounded=0;whiteSpace=wrap;html=1;" vertex="1" parent="1">
          <mxGeometry x="940" y="1480" width="40" height="40" as="geometry" />
        </mxCell>
        <mxCell id="NppVri6PDYhuUxLLY0zg-75" style="edgeStyle=orthogonalEdgeStyle;rounded=0;orthogonalLoop=1;jettySize=auto;html=1;exitX=0.5;exitY=0;exitDx=0;exitDy=0;entryX=0.5;entryY=1;entryDx=0;entryDy=0;" edge="1" parent="1" source="NppVri6PDYhuUxLLY0zg-25" target="NppVri6PDYhuUxLLY0zg-43">
          <mxGeometry relative="1" as="geometry" />
        </mxCell>
        <mxCell id="NppVri6PDYhuUxLLY0zg-25" value="61" style="rounded=0;whiteSpace=wrap;html=1;" vertex="1" parent="1">
          <mxGeometry x="1020" y="1480" width="40" height="40" as="geometry" />
        </mxCell>
        <mxCell id="NppVri6PDYhuUxLLY0zg-26" value="60" style="rounded=0;whiteSpace=wrap;html=1;" vertex="1" parent="1">
          <mxGeometry x="980" y="1480" width="40" height="40" as="geometry" />
        </mxCell>
        <mxCell id="NppVri6PDYhuUxLLY0zg-81" style="edgeStyle=orthogonalEdgeStyle;rounded=0;orthogonalLoop=1;jettySize=auto;html=1;exitX=0.5;exitY=0;exitDx=0;exitDy=0;entryX=0.5;entryY=1;entryDx=0;entryDy=0;" edge="1" parent="1" source="NppVri6PDYhuUxLLY0zg-27" target="NppVri6PDYhuUxLLY0zg-44">
          <mxGeometry relative="1" as="geometry" />
        </mxCell>
        <mxCell id="NppVri6PDYhuUxLLY0zg-27" value="..." style="rounded=0;whiteSpace=wrap;html=1;" vertex="1" parent="1">
          <mxGeometry x="1060" y="1480" width="120" height="40" as="geometry" />
        </mxCell>
        <mxCell id="NppVri6PDYhuUxLLY0zg-28" value="119" style="rounded=0;whiteSpace=wrap;html=1;" vertex="1" parent="1">
          <mxGeometry x="1180" y="1480" width="40" height="40" as="geometry" />
        </mxCell>
        <mxCell id="NppVri6PDYhuUxLLY0zg-29" value="120" style="rounded=0;whiteSpace=wrap;html=1;" vertex="1" parent="1">
          <mxGeometry x="1220" y="1480" width="40" height="40" as="geometry" />
        </mxCell>
        <mxCell id="NppVri6PDYhuUxLLY0zg-82" style="edgeStyle=orthogonalEdgeStyle;rounded=0;orthogonalLoop=1;jettySize=auto;html=1;exitX=0.5;exitY=0;exitDx=0;exitDy=0;entryX=0.5;entryY=1;entryDx=0;entryDy=0;" edge="1" parent="1" source="NppVri6PDYhuUxLLY0zg-30" target="NppVri6PDYhuUxLLY0zg-45">
          <mxGeometry relative="1" as="geometry" />
        </mxCell>
        <mxCell id="NppVri6PDYhuUxLLY0zg-30" value="121" style="rounded=0;whiteSpace=wrap;html=1;" vertex="1" parent="1">
          <mxGeometry x="1260" y="1480" width="40" height="40" as="geometry" />
        </mxCell>
        <mxCell id="NppVri6PDYhuUxLLY0zg-31" value="143" style="rounded=0;whiteSpace=wrap;html=1;" vertex="1" parent="1">
          <mxGeometry x="1420" y="1480" width="40" height="40" as="geometry" />
        </mxCell>
        <mxCell id="NppVri6PDYhuUxLLY0zg-86" style="edgeStyle=orthogonalEdgeStyle;rounded=0;orthogonalLoop=1;jettySize=auto;html=1;exitX=0.5;exitY=0;exitDx=0;exitDy=0;entryX=0.5;entryY=1;entryDx=0;entryDy=0;" edge="1" parent="1" source="NppVri6PDYhuUxLLY0zg-32" target="NppVri6PDYhuUxLLY0zg-46">
          <mxGeometry relative="1" as="geometry" />
        </mxCell>
        <mxCell id="NppVri6PDYhuUxLLY0zg-32" value="..." style="rounded=0;whiteSpace=wrap;html=1;" vertex="1" parent="1">
          <mxGeometry x="1300" y="1480" width="120" height="40" as="geometry" />
        </mxCell>
        <mxCell id="NppVri6PDYhuUxLLY0zg-70" style="edgeStyle=orthogonalEdgeStyle;rounded=0;orthogonalLoop=1;jettySize=auto;html=1;exitX=0.5;exitY=0;exitDx=0;exitDy=0;entryX=0.5;entryY=1;entryDx=0;entryDy=0;" edge="1" parent="1" source="NppVri6PDYhuUxLLY0zg-33" target="NppVri6PDYhuUxLLY0zg-42">
          <mxGeometry relative="1" as="geometry" />
        </mxCell>
        <mxCell id="NppVri6PDYhuUxLLY0zg-33" value="..." style="rounded=0;whiteSpace=wrap;html=1;" vertex="1" parent="1">
          <mxGeometry x="820" y="1480" width="120" height="40" as="geometry" />
        </mxCell>
        <mxCell id="NppVri6PDYhuUxLLY0zg-35" value="" style="shape=curlyBracket;whiteSpace=wrap;html=1;rounded=1;labelPosition=left;verticalLabelPosition=middle;align=right;verticalAlign=middle;rotation=-90;" vertex="1" parent="1">
          <mxGeometry x="852.5" y="1440" width="20" height="240" as="geometry" />
        </mxCell>
        <mxCell id="NppVri6PDYhuUxLLY0zg-36" value="" style="shape=curlyBracket;whiteSpace=wrap;html=1;rounded=1;labelPosition=left;verticalLabelPosition=middle;align=right;verticalAlign=middle;rotation=-90;" vertex="1" parent="1">
          <mxGeometry x="1092.5" y="1440" width="20" height="240" as="geometry" />
        </mxCell>
        <mxCell id="NppVri6PDYhuUxLLY0zg-37" value="" style="shape=curlyBracket;whiteSpace=wrap;html=1;rounded=1;labelPosition=left;verticalLabelPosition=middle;align=right;verticalAlign=middle;rotation=-90;" vertex="1" parent="1">
          <mxGeometry x="1332.5" y="1440" width="20" height="240" as="geometry" />
        </mxCell>
        <mxCell id="NppVri6PDYhuUxLLY0zg-38" value="sconds" style="text;html=1;align=center;verticalAlign=middle;resizable=0;points=[];autosize=1;strokeColor=none;fillColor=none;" vertex="1" parent="1">
          <mxGeometry x="832.5" y="1570" width="60" height="30" as="geometry" />
        </mxCell>
        <mxCell id="NppVri6PDYhuUxLLY0zg-39" value="minutes" style="text;html=1;align=center;verticalAlign=middle;resizable=0;points=[];autosize=1;strokeColor=none;fillColor=none;" vertex="1" parent="1">
          <mxGeometry x="1067.5" y="1570" width="70" height="30" as="geometry" />
        </mxCell>
        <mxCell id="NppVri6PDYhuUxLLY0zg-40" value="hours" style="text;html=1;align=center;verticalAlign=middle;resizable=0;points=[];autosize=1;strokeColor=none;fillColor=none;" vertex="1" parent="1">
          <mxGeometry x="1317.5" y="1570" width="50" height="30" as="geometry" />
        </mxCell>
        <mxCell id="NppVri6PDYhuUxLLY0zg-68" style="edgeStyle=orthogonalEdgeStyle;rounded=0;orthogonalLoop=1;jettySize=auto;html=1;exitX=0.5;exitY=0;exitDx=0;exitDy=0;entryX=0.5;entryY=1;entryDx=0;entryDy=0;" edge="1" parent="1" source="NppVri6PDYhuUxLLY0zg-41" target="NppVri6PDYhuUxLLY0zg-50">
          <mxGeometry relative="1" as="geometry" />
        </mxCell>
        <mxCell id="NppVri6PDYhuUxLLY0zg-41" value="" style="rounded=0;whiteSpace=wrap;html=1;fillColor=#f8cecc;strokeColor=#b85450;" vertex="1" parent="1">
          <mxGeometry x="785" y="1400" width="30" height="30" as="geometry" />
        </mxCell>
        <mxCell id="NppVri6PDYhuUxLLY0zg-71" style="edgeStyle=orthogonalEdgeStyle;rounded=0;orthogonalLoop=1;jettySize=auto;html=1;exitX=0.5;exitY=0;exitDx=0;exitDy=0;entryX=0.5;entryY=1;entryDx=0;entryDy=0;" edge="1" parent="1" source="NppVri6PDYhuUxLLY0zg-42" target="NppVri6PDYhuUxLLY0zg-52">
          <mxGeometry relative="1" as="geometry" />
        </mxCell>
        <mxCell id="NppVri6PDYhuUxLLY0zg-42" value="" style="rounded=0;whiteSpace=wrap;html=1;fillColor=#f8cecc;strokeColor=#b85450;" vertex="1" parent="1">
          <mxGeometry x="865" y="1400" width="30" height="30" as="geometry" />
        </mxCell>
        <mxCell id="NppVri6PDYhuUxLLY0zg-43" value="" style="rounded=0;whiteSpace=wrap;html=1;fillColor=#f8cecc;strokeColor=#b85450;" vertex="1" parent="1">
          <mxGeometry x="1025" y="1400" width="30" height="30" as="geometry" />
        </mxCell>
        <mxCell id="NppVri6PDYhuUxLLY0zg-80" style="edgeStyle=orthogonalEdgeStyle;rounded=0;orthogonalLoop=1;jettySize=auto;html=1;exitX=0.5;exitY=0;exitDx=0;exitDy=0;entryX=0.5;entryY=1;entryDx=0;entryDy=0;" edge="1" parent="1" source="NppVri6PDYhuUxLLY0zg-44" target="NppVri6PDYhuUxLLY0zg-60">
          <mxGeometry relative="1" as="geometry" />
        </mxCell>
        <mxCell id="NppVri6PDYhuUxLLY0zg-44" value="" style="rounded=0;whiteSpace=wrap;html=1;fillColor=#f8cecc;strokeColor=#b85450;" vertex="1" parent="1">
          <mxGeometry x="1105" y="1400" width="30" height="30" as="geometry" />
        </mxCell>
        <mxCell id="NppVri6PDYhuUxLLY0zg-83" style="edgeStyle=orthogonalEdgeStyle;rounded=0;orthogonalLoop=1;jettySize=auto;html=1;exitX=0.5;exitY=0;exitDx=0;exitDy=0;entryX=0.5;entryY=1;entryDx=0;entryDy=0;" edge="1" parent="1" source="NppVri6PDYhuUxLLY0zg-45" target="NppVri6PDYhuUxLLY0zg-64">
          <mxGeometry relative="1" as="geometry" />
        </mxCell>
        <mxCell id="NppVri6PDYhuUxLLY0zg-45" value="" style="rounded=0;whiteSpace=wrap;html=1;fillColor=#f8cecc;strokeColor=#b85450;" vertex="1" parent="1">
          <mxGeometry x="1265" y="1400" width="30" height="30" as="geometry" />
        </mxCell>
        <mxCell id="NppVri6PDYhuUxLLY0zg-84" style="edgeStyle=orthogonalEdgeStyle;rounded=0;orthogonalLoop=1;jettySize=auto;html=1;exitX=0.5;exitY=0;exitDx=0;exitDy=0;entryX=0.5;entryY=1;entryDx=0;entryDy=0;" edge="1" parent="1" source="NppVri6PDYhuUxLLY0zg-46" target="NppVri6PDYhuUxLLY0zg-62">
          <mxGeometry relative="1" as="geometry" />
        </mxCell>
        <mxCell id="NppVri6PDYhuUxLLY0zg-46" value="" style="rounded=0;whiteSpace=wrap;html=1;fillColor=#f8cecc;strokeColor=#b85450;" vertex="1" parent="1">
          <mxGeometry x="1345" y="1400" width="30" height="30" as="geometry" />
        </mxCell>
        <mxCell id="NppVri6PDYhuUxLLY0zg-76" style="edgeStyle=orthogonalEdgeStyle;rounded=0;orthogonalLoop=1;jettySize=auto;html=1;exitX=0.5;exitY=0;exitDx=0;exitDy=0;entryX=0.5;entryY=1;entryDx=0;entryDy=0;" edge="1" parent="1" source="NppVri6PDYhuUxLLY0zg-47" target="NppVri6PDYhuUxLLY0zg-56">
          <mxGeometry relative="1" as="geometry" />
        </mxCell>
        <mxCell id="NppVri6PDYhuUxLLY0zg-47" value="" style="rounded=0;whiteSpace=wrap;html=1;fillColor=#f8cecc;strokeColor=#b85450;" vertex="1" parent="1">
          <mxGeometry x="1065" y="1400" width="30" height="30" as="geometry" />
        </mxCell>
        <mxCell id="NppVri6PDYhuUxLLY0zg-49" value="" style="rounded=0;whiteSpace=wrap;html=1;fillColor=#f8cecc;strokeColor=#b85450;" vertex="1" parent="1">
          <mxGeometry x="745" y="1340" width="30" height="30" as="geometry" />
        </mxCell>
        <mxCell id="NppVri6PDYhuUxLLY0zg-69" style="edgeStyle=orthogonalEdgeStyle;rounded=0;orthogonalLoop=1;jettySize=auto;html=1;exitX=0.5;exitY=0;exitDx=0;exitDy=0;entryX=0.5;entryY=1;entryDx=0;entryDy=0;" edge="1" parent="1" source="NppVri6PDYhuUxLLY0zg-50" target="NppVri6PDYhuUxLLY0zg-51">
          <mxGeometry relative="1" as="geometry" />
        </mxCell>
        <mxCell id="NppVri6PDYhuUxLLY0zg-50" value="" style="rounded=0;whiteSpace=wrap;html=1;fillColor=#f8cecc;strokeColor=#b85450;" vertex="1" parent="1">
          <mxGeometry x="785" y="1340" width="30" height="30" as="geometry" />
        </mxCell>
        <mxCell id="NppVri6PDYhuUxLLY0zg-51" value="" style="rounded=0;whiteSpace=wrap;html=1;fillColor=#f8cecc;strokeColor=#b85450;" vertex="1" parent="1">
          <mxGeometry x="785" y="1281.5" width="30" height="30" as="geometry" />
        </mxCell>
        <mxCell id="NppVri6PDYhuUxLLY0zg-72" style="edgeStyle=orthogonalEdgeStyle;rounded=0;orthogonalLoop=1;jettySize=auto;html=1;exitX=0.5;exitY=0;exitDx=0;exitDy=0;entryX=0.5;entryY=1;entryDx=0;entryDy=0;" edge="1" parent="1" source="NppVri6PDYhuUxLLY0zg-52" target="NppVri6PDYhuUxLLY0zg-53">
          <mxGeometry relative="1" as="geometry" />
        </mxCell>
        <mxCell id="NppVri6PDYhuUxLLY0zg-52" value="" style="rounded=0;whiteSpace=wrap;html=1;fillColor=#f8cecc;strokeColor=#b85450;" vertex="1" parent="1">
          <mxGeometry x="865" y="1340" width="30" height="30" as="geometry" />
        </mxCell>
        <mxCell id="NppVri6PDYhuUxLLY0zg-73" style="edgeStyle=orthogonalEdgeStyle;rounded=0;orthogonalLoop=1;jettySize=auto;html=1;exitX=0.5;exitY=0;exitDx=0;exitDy=0;entryX=0.5;entryY=1;entryDx=0;entryDy=0;" edge="1" parent="1" source="NppVri6PDYhuUxLLY0zg-53" target="NppVri6PDYhuUxLLY0zg-54">
          <mxGeometry relative="1" as="geometry" />
        </mxCell>
        <mxCell id="NppVri6PDYhuUxLLY0zg-53" value="" style="rounded=0;whiteSpace=wrap;html=1;fillColor=#f8cecc;strokeColor=#b85450;" vertex="1" parent="1">
          <mxGeometry x="865" y="1281.5" width="30" height="30" as="geometry" />
        </mxCell>
        <mxCell id="NppVri6PDYhuUxLLY0zg-74" style="edgeStyle=orthogonalEdgeStyle;rounded=0;orthogonalLoop=1;jettySize=auto;html=1;exitX=0.5;exitY=0;exitDx=0;exitDy=0;entryX=0.5;entryY=1;entryDx=0;entryDy=0;" edge="1" parent="1" source="NppVri6PDYhuUxLLY0zg-54" target="NppVri6PDYhuUxLLY0zg-55">
          <mxGeometry relative="1" as="geometry" />
        </mxCell>
        <mxCell id="NppVri6PDYhuUxLLY0zg-54" value="" style="rounded=0;whiteSpace=wrap;html=1;fillColor=#f8cecc;strokeColor=#b85450;" vertex="1" parent="1">
          <mxGeometry x="865" y="1221.5" width="30" height="30" as="geometry" />
        </mxCell>
        <mxCell id="NppVri6PDYhuUxLLY0zg-55" value="" style="rounded=0;whiteSpace=wrap;html=1;fillColor=#f8cecc;strokeColor=#b85450;" vertex="1" parent="1">
          <mxGeometry x="865" y="1160" width="30" height="30" as="geometry" />
        </mxCell>
        <mxCell id="NppVri6PDYhuUxLLY0zg-77" style="edgeStyle=orthogonalEdgeStyle;rounded=0;orthogonalLoop=1;jettySize=auto;html=1;exitX=0.5;exitY=0;exitDx=0;exitDy=0;entryX=0.5;entryY=1;entryDx=0;entryDy=0;" edge="1" parent="1" source="NppVri6PDYhuUxLLY0zg-56" target="NppVri6PDYhuUxLLY0zg-57">
          <mxGeometry relative="1" as="geometry" />
        </mxCell>
        <mxCell id="NppVri6PDYhuUxLLY0zg-56" value="" style="rounded=0;whiteSpace=wrap;html=1;fillColor=#f8cecc;strokeColor=#b85450;" vertex="1" parent="1">
          <mxGeometry x="1065" y="1340" width="30" height="30" as="geometry" />
        </mxCell>
        <mxCell id="NppVri6PDYhuUxLLY0zg-78" style="edgeStyle=orthogonalEdgeStyle;rounded=0;orthogonalLoop=1;jettySize=auto;html=1;exitX=0.5;exitY=0;exitDx=0;exitDy=0;entryX=0.5;entryY=1;entryDx=0;entryDy=0;" edge="1" parent="1" source="NppVri6PDYhuUxLLY0zg-57" target="NppVri6PDYhuUxLLY0zg-58">
          <mxGeometry relative="1" as="geometry" />
        </mxCell>
        <mxCell id="NppVri6PDYhuUxLLY0zg-57" value="" style="rounded=0;whiteSpace=wrap;html=1;fillColor=#f8cecc;strokeColor=#b85450;" vertex="1" parent="1">
          <mxGeometry x="1065" y="1281.5" width="30" height="30" as="geometry" />
        </mxCell>
        <mxCell id="NppVri6PDYhuUxLLY0zg-58" value="" style="rounded=0;whiteSpace=wrap;html=1;fillColor=#f8cecc;strokeColor=#b85450;" vertex="1" parent="1">
          <mxGeometry x="1065" y="1221.5" width="30" height="30" as="geometry" />
        </mxCell>
        <mxCell id="NppVri6PDYhuUxLLY0zg-79" style="edgeStyle=orthogonalEdgeStyle;rounded=0;orthogonalLoop=1;jettySize=auto;html=1;exitX=0.5;exitY=0;exitDx=0;exitDy=0;entryX=0.5;entryY=1;entryDx=0;entryDy=0;" edge="1" parent="1" source="NppVri6PDYhuUxLLY0zg-60" target="NppVri6PDYhuUxLLY0zg-61">
          <mxGeometry relative="1" as="geometry" />
        </mxCell>
        <mxCell id="NppVri6PDYhuUxLLY0zg-60" value="" style="rounded=0;whiteSpace=wrap;html=1;fillColor=#f8cecc;strokeColor=#b85450;" vertex="1" parent="1">
          <mxGeometry x="1105" y="1340" width="30" height="30" as="geometry" />
        </mxCell>
        <mxCell id="NppVri6PDYhuUxLLY0zg-61" value="" style="rounded=0;whiteSpace=wrap;html=1;fillColor=#f8cecc;strokeColor=#b85450;" vertex="1" parent="1">
          <mxGeometry x="1105" y="1281.5" width="30" height="30" as="geometry" />
        </mxCell>
        <mxCell id="NppVri6PDYhuUxLLY0zg-85" style="edgeStyle=orthogonalEdgeStyle;rounded=0;orthogonalLoop=1;jettySize=auto;html=1;exitX=0.5;exitY=0;exitDx=0;exitDy=0;entryX=0.5;entryY=1;entryDx=0;entryDy=0;" edge="1" parent="1" source="NppVri6PDYhuUxLLY0zg-62" target="NppVri6PDYhuUxLLY0zg-63">
          <mxGeometry relative="1" as="geometry" />
        </mxCell>
        <mxCell id="NppVri6PDYhuUxLLY0zg-62" value="" style="rounded=0;whiteSpace=wrap;html=1;fillColor=#f8cecc;strokeColor=#b85450;" vertex="1" parent="1">
          <mxGeometry x="1345" y="1340" width="30" height="30" as="geometry" />
        </mxCell>
        <mxCell id="NppVri6PDYhuUxLLY0zg-158" style="edgeStyle=orthogonalEdgeStyle;rounded=0;orthogonalLoop=1;jettySize=auto;html=1;exitX=1;exitY=0.5;exitDx=0;exitDy=0;entryX=0.5;entryY=1;entryDx=0;entryDy=0;fillColor=#f8cecc;strokeColor=#b85450;" edge="1" parent="1" source="NppVri6PDYhuUxLLY0zg-63" target="NppVri6PDYhuUxLLY0zg-109">
          <mxGeometry relative="1" as="geometry">
            <Array as="points">
              <mxPoint x="1320" y="1296" />
              <mxPoint x="1320" y="1101" />
              <mxPoint x="1240" y="1101" />
            </Array>
          </mxGeometry>
        </mxCell>
        <mxCell id="NppVri6PDYhuUxLLY0zg-63" value="" style="rounded=0;whiteSpace=wrap;html=1;fillColor=#f8cecc;strokeColor=#b85450;" vertex="1" parent="1">
          <mxGeometry x="1345" y="1281.5" width="30" height="30" as="geometry" />
        </mxCell>
        <mxCell id="NppVri6PDYhuUxLLY0zg-64" value="" style="rounded=0;whiteSpace=wrap;html=1;fillColor=#f8cecc;strokeColor=#b85450;" vertex="1" parent="1">
          <mxGeometry x="1265" y="1340" width="30" height="30" as="geometry" />
        </mxCell>
        <mxCell id="NppVri6PDYhuUxLLY0zg-87" style="edgeStyle=orthogonalEdgeStyle;rounded=0;orthogonalLoop=1;jettySize=auto;html=1;exitX=0.5;exitY=0;exitDx=0;exitDy=0;entryX=0.5;entryY=1;entryDx=0;entryDy=0;" edge="1" parent="1">
          <mxGeometry relative="1" as="geometry">
            <mxPoint x="1079.6599999999999" y="1480" as="sourcePoint" />
            <mxPoint x="1079.6599999999999" y="1430" as="targetPoint" />
          </mxGeometry>
        </mxCell>
        <mxCell id="NppVri6PDYhuUxLLY0zg-142" style="edgeStyle=orthogonalEdgeStyle;rounded=0;orthogonalLoop=1;jettySize=auto;html=1;entryX=0;entryY=0.5;entryDx=0;entryDy=0;" edge="1" parent="1" source="NppVri6PDYhuUxLLY0zg-88" target="NppVri6PDYhuUxLLY0zg-141">
          <mxGeometry relative="1" as="geometry" />
        </mxCell>
        <mxCell id="NppVri6PDYhuUxLLY0zg-88" value="TimeWheelTimer" style="swimlane;whiteSpace=wrap;html=1;startSize=40;fillColor=#0050ef;strokeColor=#001DBC;fontColor=#ffffff;" vertex="1" parent="1">
          <mxGeometry x="120" y="80" width="240" height="880" as="geometry" />
        </mxCell>
        <mxCell id="NppVri6PDYhuUxLLY0zg-89" value="generateID()" style="rounded=0;whiteSpace=wrap;html=1;" vertex="1" parent="NppVri6PDYhuUxLLY0zg-88">
          <mxGeometry x="40" y="80" width="160" height="40" as="geometry" />
        </mxCell>
        <mxCell id="NppVri6PDYhuUxLLY0zg-90" value="addTask()" style="rounded=0;whiteSpace=wrap;html=1;" vertex="1" parent="NppVri6PDYhuUxLLY0zg-88">
          <mxGeometry x="40" y="140" width="160" height="40" as="geometry" />
        </mxCell>
        <mxCell id="NppVri6PDYhuUxLLY0zg-91" value="tick()" style="rounded=0;whiteSpace=wrap;html=1;" vertex="1" parent="NppVri6PDYhuUxLLY0zg-88">
          <mxGeometry x="40" y="200" width="160" height="40" as="geometry" />
        </mxCell>
        <mxCell id="NppVri6PDYhuUxLLY0zg-92" value="checkSecondWheel()" style="rounded=0;whiteSpace=wrap;html=1;" vertex="1" parent="NppVri6PDYhuUxLLY0zg-88">
          <mxGeometry x="40" y="260" width="160" height="40" as="geometry" />
        </mxCell>
        <mxCell id="NppVri6PDYhuUxLLY0zg-93" value="checkMinuteWheel()" style="rounded=0;whiteSpace=wrap;html=1;" vertex="1" parent="NppVri6PDYhuUxLLY0zg-88">
          <mxGeometry x="40" y="320" width="160" height="40" as="geometry" />
        </mxCell>
        <mxCell id="NppVri6PDYhuUxLLY0zg-94" value="checkHourWheel()" style="rounded=0;whiteSpace=wrap;html=1;" vertex="1" parent="NppVri6PDYhuUxLLY0zg-88">
          <mxGeometry x="40" y="380" width="160" height="40" as="geometry" />
        </mxCell>
        <mxCell id="NppVri6PDYhuUxLLY0zg-102" value="registerTask()" style="rounded=0;whiteSpace=wrap;html=1;" vertex="1" parent="NppVri6PDYhuUxLLY0zg-88">
          <mxGeometry x="40" y="440" width="160" height="40" as="geometry" />
        </mxCell>
        <mxCell id="NppVri6PDYhuUxLLY0zg-103" value="repeatTimerTask()" style="rounded=0;whiteSpace=wrap;html=1;" vertex="1" parent="NppVri6PDYhuUxLLY0zg-88">
          <mxGeometry x="40" y="500" width="160" height="40" as="geometry" />
        </mxCell>
        <mxCell id="NppVri6PDYhuUxLLY0zg-104" value="eraseTimerTask()" style="rounded=0;whiteSpace=wrap;html=1;" vertex="1" parent="NppVri6PDYhuUxLLY0zg-88">
          <mxGeometry x="40" y="560" width="160" height="40" as="geometry" />
        </mxCell>
        <mxCell id="NppVri6PDYhuUxLLY0zg-106" value="mTimeWheel" style="rounded=1;whiteSpace=wrap;html=1;arcSize=34;" vertex="1" parent="NppVri6PDYhuUxLLY0zg-88">
          <mxGeometry x="50" y="680" width="120" height="40" as="geometry" />
        </mxCell>
        <mxCell id="NppVri6PDYhuUxLLY0zg-107" value="mTaskEntry" style="rounded=1;whiteSpace=wrap;html=1;arcSize=34;" vertex="1" parent="NppVri6PDYhuUxLLY0zg-88">
          <mxGeometry x="50" y="740" width="120" height="40" as="geometry" />
        </mxCell>
        <mxCell id="NppVri6PDYhuUxLLY0zg-108" value="mRegisteredTasks" style="rounded=1;whiteSpace=wrap;html=1;arcSize=34;" vertex="1" parent="NppVri6PDYhuUxLLY0zg-88">
          <mxGeometry x="50" y="800" width="120" height="40" as="geometry" />
        </mxCell>
        <mxCell id="NppVri6PDYhuUxLLY0zg-109" value="TimerNode" style="swimlane;whiteSpace=wrap;html=1;startSize=40;fillColor=#f8cecc;strokeColor=#b85450;" vertex="1" parent="1">
          <mxGeometry x="1120" y="360" width="240" height="560" as="geometry" />
        </mxCell>
        <mxCell id="NppVri6PDYhuUxLLY0zg-110" value="getTimerTask()" style="rounded=0;whiteSpace=wrap;html=1;" vertex="1" parent="NppVri6PDYhuUxLLY0zg-109">
          <mxGeometry x="40" y="80" width="160" height="40" as="geometry" />
        </mxCell>
        <mxCell id="NppVri6PDYhuUxLLY0zg-111" value="getId()" style="rounded=0;whiteSpace=wrap;html=1;" vertex="1" parent="NppVri6PDYhuUxLLY0zg-109">
          <mxGeometry x="40" y="140" width="160" height="40" as="geometry" />
        </mxCell>
        <mxCell id="NppVri6PDYhuUxLLY0zg-112" value="getCycNum()" style="rounded=0;whiteSpace=wrap;html=1;" vertex="1" parent="NppVri6PDYhuUxLLY0zg-109">
          <mxGeometry x="40" y="200" width="160" height="40" as="geometry" />
        </mxCell>
        <mxCell id="NppVri6PDYhuUxLLY0zg-113" value="getTaskFunc()" style="rounded=0;whiteSpace=wrap;html=1;" vertex="1" parent="NppVri6PDYhuUxLLY0zg-109">
          <mxGeometry x="40" y="260" width="160" height="40" as="geometry" />
        </mxCell>
        <mxCell id="NppVri6PDYhuUxLLY0zg-114" value="getRound()" style="rounded=0;whiteSpace=wrap;html=1;" vertex="1" parent="NppVri6PDYhuUxLLY0zg-109">
          <mxGeometry x="40" y="320" width="160" height="40" as="geometry" />
        </mxCell>
        <mxCell id="NppVri6PDYhuUxLLY0zg-119" value="mTimerTask" style="rounded=1;whiteSpace=wrap;html=1;arcSize=34;" vertex="1" parent="NppVri6PDYhuUxLLY0zg-109">
          <mxGeometry x="60" y="420" width="120" height="40" as="geometry" />
        </mxCell>
        <mxCell id="NppVri6PDYhuUxLLY0zg-120" value="mRound" style="rounded=1;whiteSpace=wrap;html=1;arcSize=34;" vertex="1" parent="NppVri6PDYhuUxLLY0zg-109">
          <mxGeometry x="60" y="480" width="120" height="40" as="geometry" />
        </mxCell>
        <mxCell id="NppVri6PDYhuUxLLY0zg-122" value="TimerTask" style="swimlane;whiteSpace=wrap;html=1;startSize=40;fillColor=#ffe6cc;strokeColor=#d79b00;" vertex="1" parent="1">
          <mxGeometry x="1640" y="480" width="240" height="460" as="geometry" />
        </mxCell>
        <mxCell id="NppVri6PDYhuUxLLY0zg-128" value="mID" style="rounded=1;whiteSpace=wrap;html=1;arcSize=34;" vertex="1" parent="NppVri6PDYhuUxLLY0zg-122">
          <mxGeometry x="60" y="320" width="120" height="40" as="geometry" />
        </mxCell>
        <mxCell id="NppVri6PDYhuUxLLY0zg-129" value="mTask" style="rounded=1;whiteSpace=wrap;html=1;arcSize=34;" vertex="1" parent="NppVri6PDYhuUxLLY0zg-122">
          <mxGeometry x="60" y="380" width="120" height="40" as="geometry" />
        </mxCell>
        <mxCell id="NppVri6PDYhuUxLLY0zg-130" value="mSeconds" style="rounded=1;whiteSpace=wrap;html=1;arcSize=34;" vertex="1" parent="NppVri6PDYhuUxLLY0zg-122">
          <mxGeometry x="60" y="200" width="120" height="40" as="geometry" />
        </mxCell>
        <mxCell id="NppVri6PDYhuUxLLY0zg-131" value="mCycleNumber" style="rounded=1;whiteSpace=wrap;html=1;arcSize=34;" vertex="1" parent="NppVri6PDYhuUxLLY0zg-122">
          <mxGeometry x="60" y="260" width="120" height="40" as="geometry" />
        </mxCell>
        <mxCell id="NppVri6PDYhuUxLLY0zg-132" value="mHours" style="rounded=1;whiteSpace=wrap;html=1;arcSize=34;" vertex="1" parent="NppVri6PDYhuUxLLY0zg-122">
          <mxGeometry x="60" y="80" width="120" height="40" as="geometry" />
        </mxCell>
        <mxCell id="NppVri6PDYhuUxLLY0zg-133" value="mMinutes" style="rounded=1;whiteSpace=wrap;html=1;arcSize=34;" vertex="1" parent="NppVri6PDYhuUxLLY0zg-122">
          <mxGeometry x="60" y="140" width="120" height="40" as="geometry" />
        </mxCell>
        <mxCell id="NppVri6PDYhuUxLLY0zg-134" value="function&amp;lt;void()&amp;gt;" style="shape=document;whiteSpace=wrap;html=1;boundedLbl=1;fillColor=#dae8fc;strokeColor=#6c8ebf;" vertex="1" parent="1">
          <mxGeometry x="2000" y="850" width="160" height="60" as="geometry" />
        </mxCell>
        <mxCell id="NppVri6PDYhuUxLLY0zg-135" style="edgeStyle=orthogonalEdgeStyle;rounded=0;orthogonalLoop=1;jettySize=auto;html=1;exitX=1;exitY=0.5;exitDx=0;exitDy=0;entryX=0;entryY=0.5;entryDx=0;entryDy=0;fillColor=#dae8fc;strokeColor=#6c8ebf;" edge="1" parent="1" source="NppVri6PDYhuUxLLY0zg-129" target="NppVri6PDYhuUxLLY0zg-134">
          <mxGeometry relative="1" as="geometry" />
        </mxCell>
        <mxCell id="NppVri6PDYhuUxLLY0zg-138" style="edgeStyle=orthogonalEdgeStyle;rounded=0;orthogonalLoop=1;jettySize=auto;html=1;exitX=1;exitY=0.5;exitDx=0;exitDy=0;entryX=0;entryY=0.5;entryDx=0;entryDy=0;fillColor=#ffe6cc;strokeColor=#d79b00;" edge="1" parent="1" source="NppVri6PDYhuUxLLY0zg-119" target="NppVri6PDYhuUxLLY0zg-122">
          <mxGeometry relative="1" as="geometry" />
        </mxCell>
        <mxCell id="NppVri6PDYhuUxLLY0zg-147" style="edgeStyle=orthogonalEdgeStyle;rounded=0;orthogonalLoop=1;jettySize=auto;html=1;exitX=0.5;exitY=1;exitDx=0;exitDy=0;entryX=0.5;entryY=0;entryDx=0;entryDy=0;" edge="1" parent="1" source="NppVri6PDYhuUxLLY0zg-141" target="NppVri6PDYhuUxLLY0zg-145">
          <mxGeometry relative="1" as="geometry" />
        </mxCell>
        <mxCell id="NppVri6PDYhuUxLLY0zg-151" style="edgeStyle=orthogonalEdgeStyle;rounded=0;orthogonalLoop=1;jettySize=auto;html=1;exitX=1;exitY=0.5;exitDx=0;exitDy=0;entryX=0;entryY=0.5;entryDx=0;entryDy=0;" edge="1" parent="1" source="NppVri6PDYhuUxLLY0zg-141" target="NppVri6PDYhuUxLLY0zg-144">
          <mxGeometry relative="1" as="geometry" />
        </mxCell>
        <mxCell id="NppVri6PDYhuUxLLY0zg-141" value="mThread&lt;br&gt;" style="rounded=0;whiteSpace=wrap;html=1;" vertex="1" parent="1">
          <mxGeometry x="520" y="80" width="120" height="80" as="geometry" />
        </mxCell>
        <mxCell id="NppVri6PDYhuUxLLY0zg-143" value="initialization" style="text;html=1;align=center;verticalAlign=middle;resizable=0;points=[];autosize=1;strokeColor=none;fillColor=none;" vertex="1" parent="1">
          <mxGeometry x="420" y="88" width="90" height="30" as="geometry" />
        </mxCell>
        <mxCell id="NppVri6PDYhuUxLLY0zg-148" style="edgeStyle=orthogonalEdgeStyle;rounded=0;orthogonalLoop=1;jettySize=auto;html=1;exitX=0.5;exitY=1;exitDx=0;exitDy=0;entryX=0.5;entryY=0;entryDx=0;entryDy=0;" edge="1" parent="1" source="NppVri6PDYhuUxLLY0zg-144" target="NppVri6PDYhuUxLLY0zg-146">
          <mxGeometry relative="1" as="geometry" />
        </mxCell>
        <mxCell id="NppVri6PDYhuUxLLY0zg-144" value="mGetAndRegisterThread" style="rounded=0;whiteSpace=wrap;html=1;" vertex="1" parent="1">
          <mxGeometry x="680" y="80" width="160" height="80" as="geometry" />
        </mxCell>
        <mxCell id="NppVri6PDYhuUxLLY0zg-145" value="tick()" style="rounded=0;whiteSpace=wrap;html=1;" vertex="1" parent="1">
          <mxGeometry x="520" y="240" width="120" height="40" as="geometry" />
        </mxCell>
        <mxCell id="NppVri6PDYhuUxLLY0zg-146" value="registerTask()" style="rounded=0;whiteSpace=wrap;html=1;" vertex="1" parent="1">
          <mxGeometry x="700" y="240" width="120" height="40" as="geometry" />
        </mxCell>
        <mxCell id="NppVri6PDYhuUxLLY0zg-149" value="bind" style="text;html=1;align=center;verticalAlign=middle;resizable=0;points=[];autosize=1;strokeColor=none;fillColor=none;" vertex="1" parent="1">
          <mxGeometry x="535" y="188" width="50" height="30" as="geometry" />
        </mxCell>
        <mxCell id="NppVri6PDYhuUxLLY0zg-150" value="bind" style="text;html=1;align=center;verticalAlign=middle;resizable=0;points=[];autosize=1;strokeColor=none;fillColor=none;" vertex="1" parent="1">
          <mxGeometry x="715" y="188" width="50" height="30" as="geometry" />
        </mxCell>
        <mxCell id="NppVri6PDYhuUxLLY0zg-152" value="seconds since epoch + ascend per second" style="shape=document;whiteSpace=wrap;html=1;boundedLbl=1;fillColor=#dae8fc;strokeColor=#6c8ebf;" vertex="1" parent="1">
          <mxGeometry x="520" y="320" width="280" height="60" as="geometry" />
        </mxCell>
        <mxCell id="NppVri6PDYhuUxLLY0zg-153" style="edgeStyle=orthogonalEdgeStyle;rounded=0;orthogonalLoop=1;jettySize=auto;html=1;exitX=1;exitY=0.5;exitDx=0;exitDy=0;entryX=0;entryY=0.5;entryDx=0;entryDy=0;fillColor=#dae8fc;strokeColor=#6c8ebf;" edge="1" parent="1" source="NppVri6PDYhuUxLLY0zg-89" target="NppVri6PDYhuUxLLY0zg-152">
          <mxGeometry relative="1" as="geometry" />
        </mxCell>
        <mxCell id="NppVri6PDYhuUxLLY0zg-154" value="mTaskEntry.push()" style="shape=document;whiteSpace=wrap;html=1;boundedLbl=1;fillColor=#dae8fc;strokeColor=#6c8ebf;" vertex="1" parent="1">
          <mxGeometry x="600" y="400" width="200" height="60" as="geometry" />
        </mxCell>
        <mxCell id="NppVri6PDYhuUxLLY0zg-155" style="edgeStyle=orthogonalEdgeStyle;rounded=0;orthogonalLoop=1;jettySize=auto;html=1;exitX=1;exitY=0.5;exitDx=0;exitDy=0;entryX=0;entryY=0.5;entryDx=0;entryDy=0;fillColor=#dae8fc;strokeColor=#6c8ebf;" edge="1" parent="1" source="NppVri6PDYhuUxLLY0zg-90" target="NppVri6PDYhuUxLLY0zg-154">
          <mxGeometry relative="1" as="geometry" />
        </mxCell>
        <mxCell id="NppVri6PDYhuUxLLY0zg-156" value="tick per second&lt;br&gt;checkSecondWheel() and checkMinuteWheel() and checkHourWheel()&lt;br&gt;invoke&amp;nbsp;TimerTask.mTask() if match slot" style="shape=document;whiteSpace=wrap;html=1;boundedLbl=1;fillColor=#dae8fc;strokeColor=#6c8ebf;" vertex="1" parent="1">
          <mxGeometry x="480" y="480" width="440" height="100" as="geometry" />
        </mxCell>
        <mxCell id="NppVri6PDYhuUxLLY0zg-157" style="edgeStyle=orthogonalEdgeStyle;rounded=0;orthogonalLoop=1;jettySize=auto;html=1;exitX=1;exitY=0.5;exitDx=0;exitDy=0;entryX=0;entryY=0.5;entryDx=0;entryDy=0;fillColor=#dae8fc;strokeColor=#6c8ebf;" edge="1" parent="1" source="NppVri6PDYhuUxLLY0zg-91" target="NppVri6PDYhuUxLLY0zg-156">
          <mxGeometry relative="1" as="geometry" />
        </mxCell>
        <mxCell id="NppVri6PDYhuUxLLY0zg-159" style="edgeStyle=orthogonalEdgeStyle;rounded=0;orthogonalLoop=1;jettySize=auto;html=1;exitX=1;exitY=0.5;exitDx=0;exitDy=0;entryX=0;entryY=0.5;entryDx=0;entryDy=0;fillColor=#f8cecc;strokeColor=#b85450;" edge="1" parent="1" source="NppVri6PDYhuUxLLY0zg-106" target="NppVri6PDYhuUxLLY0zg-1">
          <mxGeometry relative="1" as="geometry">
            <Array as="points">
              <mxPoint x="400" y="780" />
              <mxPoint x="400" y="1500" />
            </Array>
          </mxGeometry>
        </mxCell>
        <mxCell id="NppVri6PDYhuUxLLY0zg-160" value="safeQueue&amp;lt;TimerTask&amp;gt;" style="shape=document;whiteSpace=wrap;html=1;boundedLbl=1;fillColor=#dae8fc;strokeColor=#6c8ebf;" vertex="1" parent="1">
          <mxGeometry x="380" y="990" width="200" height="60" as="geometry" />
        </mxCell>
        <mxCell id="NppVri6PDYhuUxLLY0zg-161" style="edgeStyle=orthogonalEdgeStyle;rounded=0;orthogonalLoop=1;jettySize=auto;html=1;exitX=1;exitY=0.5;exitDx=0;exitDy=0;entryX=0;entryY=0.5;entryDx=0;entryDy=0;fillColor=#dae8fc;strokeColor=#6c8ebf;" edge="1" parent="1" source="NppVri6PDYhuUxLLY0zg-107" target="NppVri6PDYhuUxLLY0zg-160">
          <mxGeometry relative="1" as="geometry" />
        </mxCell>
        <mxCell id="NppVri6PDYhuUxLLY0zg-162" value="mTaskEntry.waitAndPop()&lt;br&gt;check cycNum to determine&amp;nbsp;eraseTimerTask() or&amp;nbsp;&amp;nbsp;mRegisteredTasks.insert()&lt;br&gt;insert timerNode to&amp;nbsp;appropriate slot" style="shape=document;whiteSpace=wrap;html=1;boundedLbl=1;fillColor=#dae8fc;strokeColor=#6c8ebf;" vertex="1" parent="1">
          <mxGeometry x="560" y="640" width="440" height="100" as="geometry" />
        </mxCell>
        <mxCell id="NppVri6PDYhuUxLLY0zg-163" style="edgeStyle=orthogonalEdgeStyle;rounded=0;orthogonalLoop=1;jettySize=auto;html=1;exitX=1;exitY=0.5;exitDx=0;exitDy=0;entryX=0;entryY=0.5;entryDx=0;entryDy=0;fillColor=#dae8fc;strokeColor=#6c8ebf;" edge="1" parent="1" source="NppVri6PDYhuUxLLY0zg-102" target="NppVri6PDYhuUxLLY0zg-162">
          <mxGeometry relative="1" as="geometry" />
        </mxCell>
        <mxCell id="NppVri6PDYhuUxLLY0zg-164" value="if cycNum &amp;gt; 0 || task is&amp;nbsp;perpetual&lt;br&gt;invoked in checkSecondWheel()" style="shape=document;whiteSpace=wrap;html=1;boundedLbl=1;fillColor=#dae8fc;strokeColor=#6c8ebf;" vertex="1" parent="1">
          <mxGeometry x="520" y="760" width="240" height="80" as="geometry" />
        </mxCell>
        <mxCell id="NppVri6PDYhuUxLLY0zg-165" style="edgeStyle=orthogonalEdgeStyle;rounded=0;orthogonalLoop=1;jettySize=auto;html=1;exitX=1;exitY=0.5;exitDx=0;exitDy=0;entryX=0;entryY=0.5;entryDx=0;entryDy=0;fillColor=#dae8fc;strokeColor=#6c8ebf;" edge="1" parent="1" source="NppVri6PDYhuUxLLY0zg-103" target="NppVri6PDYhuUxLLY0zg-164">
          <mxGeometry relative="1" as="geometry" />
        </mxCell>
        <mxCell id="NppVri6PDYhuUxLLY0zg-166" value="mHours/24" style="shape=document;whiteSpace=wrap;html=1;boundedLbl=1;fillColor=#dae8fc;strokeColor=#6c8ebf;" vertex="1" parent="1">
          <mxGeometry x="1400" y="830" width="120" height="60" as="geometry" />
        </mxCell>
        <mxCell id="NppVri6PDYhuUxLLY0zg-167" style="edgeStyle=orthogonalEdgeStyle;rounded=0;orthogonalLoop=1;jettySize=auto;html=1;exitX=1;exitY=0.5;exitDx=0;exitDy=0;entryX=0;entryY=0.5;entryDx=0;entryDy=0;fillColor=#dae8fc;strokeColor=#6c8ebf;" edge="1" parent="1" target="NppVri6PDYhuUxLLY0zg-166" source="NppVri6PDYhuUxLLY0zg-120">
          <mxGeometry relative="1" as="geometry">
            <mxPoint x="1690" y="770" as="sourcePoint" />
          </mxGeometry>
        </mxCell>
        <mxCell id="NppVri6PDYhuUxLLY0zg-169" value="-1 for all-the-time task&lt;br&gt;0 for remove task&lt;br&gt;1 for one-time task&lt;br&gt;n for repeate-n-time task" style="shape=document;whiteSpace=wrap;html=1;boundedLbl=1;fillColor=#dae8fc;strokeColor=#6c8ebf;" vertex="1" parent="1">
          <mxGeometry x="2000" y="705" width="200" height="110" as="geometry" />
        </mxCell>
        <mxCell id="NppVri6PDYhuUxLLY0zg-170" style="edgeStyle=orthogonalEdgeStyle;rounded=0;orthogonalLoop=1;jettySize=auto;html=1;exitX=1;exitY=0.5;exitDx=0;exitDy=0;entryX=0;entryY=0.5;entryDx=0;entryDy=0;fillColor=#dae8fc;strokeColor=#6c8ebf;" edge="1" parent="1" source="NppVri6PDYhuUxLLY0zg-131" target="NppVri6PDYhuUxLLY0zg-169">
          <mxGeometry relative="1" as="geometry" />
        </mxCell>
        <mxCell id="NppVri6PDYhuUxLLY0zg-171" value="" style="rounded=0;whiteSpace=wrap;html=1;" vertex="1" parent="1">
          <mxGeometry x="680" y="920" width="200" height="80" as="geometry" />
        </mxCell>
        <mxCell id="NppVri6PDYhuUxLLY0zg-176" style="edgeStyle=orthogonalEdgeStyle;rounded=0;orthogonalLoop=1;jettySize=auto;html=1;exitX=1;exitY=0.5;exitDx=0;exitDy=0;entryX=0;entryY=0.5;entryDx=0;entryDy=0;" edge="1" parent="1" source="NppVri6PDYhuUxLLY0zg-172" target="NppVri6PDYhuUxLLY0zg-173">
          <mxGeometry relative="1" as="geometry" />
        </mxCell>
        <mxCell id="NppVri6PDYhuUxLLY0zg-172" value="id" style="rounded=0;whiteSpace=wrap;html=1;" vertex="1" parent="1">
          <mxGeometry x="697.5" y="940" width="45" height="40" as="geometry" />
        </mxCell>
        <mxCell id="NppVri6PDYhuUxLLY0zg-178" style="edgeStyle=orthogonalEdgeStyle;rounded=0;orthogonalLoop=1;jettySize=auto;html=1;exitX=0.5;exitY=1;exitDx=0;exitDy=0;entryX=0.5;entryY=1;entryDx=0;entryDy=0;fillColor=#fff2cc;strokeColor=#d6b656;" edge="1" parent="1" source="NppVri6PDYhuUxLLY0zg-173" target="NppVri6PDYhuUxLLY0zg-122">
          <mxGeometry relative="1" as="geometry">
            <Array as="points">
              <mxPoint x="820" y="1140" />
              <mxPoint x="1760" y="1140" />
            </Array>
          </mxGeometry>
        </mxCell>
        <mxCell id="NppVri6PDYhuUxLLY0zg-173" value="TimerTask" style="rounded=0;whiteSpace=wrap;html=1;" vertex="1" parent="1">
          <mxGeometry x="780" y="940" width="80" height="40" as="geometry" />
        </mxCell>
        <mxCell id="NppVri6PDYhuUxLLY0zg-177" style="edgeStyle=orthogonalEdgeStyle;rounded=0;orthogonalLoop=1;jettySize=auto;html=1;exitX=1;exitY=0.5;exitDx=0;exitDy=0;entryX=0;entryY=0.5;entryDx=0;entryDy=0;fillColor=#f8cecc;strokeColor=#b85450;" edge="1" parent="1" source="NppVri6PDYhuUxLLY0zg-108" target="NppVri6PDYhuUxLLY0zg-171">
          <mxGeometry relative="1" as="geometry" />
        </mxCell>
      </root>
    </mxGraphModel>
  </diagram>
</mxfile>
